<svg width="202" height="75" viewBox="0 0 202 75" fill="none" xmlns="http://www.w3.org/2000/svg">
<path d="M93 33.2C92.96 33.22 92.88 33.24 92.76 33.26C92.64 33.28 92.51 33.29 92.37 33.29C92.25 33.31 92.12 33.33 91.98 33.35C91.86 33.37 91.78 33.38 91.74 33.38C91.48 33.42 91.24 33.4 91.02 33.32C90.8 33.24 90.58 33.21 90.36 33.23C90.3 33.23 90.18 33.21 90 33.17C89.82 33.13 89.63 33.08 89.43 33.02C89.23 32.96 89.06 32.91 88.92 32.87C88.78 32.83 88.72 32.81 88.74 32.81C88.38 32.67 88.14 32.57 88.02 32.51C87.9 32.45 87.76 32.4 87.6 32.36C87.52 32.26 87.45 32.2 87.39 32.18C87.33 32.16 87.3 32.1 87.3 32C87.34 31.96 87.4 31.87 87.48 31.73C87.56 31.57 87.64 31.4 87.72 31.22C87.82 31.02 87.91 30.83 87.99 30.65C88.07 30.47 88.13 30.33 88.17 30.23C88.27 30.29 88.42 30.36 88.62 30.44C88.82 30.52 89.05 30.6 89.31 30.68C89.49 30.74 89.68 30.79 89.88 30.83C90.08 30.87 90.29 30.91 90.51 30.95L90.99 31.01C91.49 31.07 91.99 31.04 92.49 30.92C92.99 30.8 93.39 30.54 93.69 30.14C93.97 29.86 94.18 29.62 94.32 29.42C94.48 29.22 94.6 29.05 94.68 28.91C94.76 28.77 94.82 28.65 94.86 28.55C94.92 28.45 94.99 28.36 95.07 28.28C95.17 28.12 95.23 27.93 95.25 27.71C95.27 27.47 95.31 27.27 95.37 27.11C95.47 26.69 95.53 26.31 95.55 25.97C95.57 25.61 95.63 25.26 95.73 24.92C95.71 24.7 95.69 24.47 95.67 24.23C95.67 23.99 95.69 23.76 95.73 23.54C95.75 23.38 95.76 23.19 95.76 22.97C95.76 22.73 95.76 22.54 95.76 22.4C95.78 22 95.77 21.62 95.73 21.26C95.71 20.88 95.71 20.49 95.73 20.09C95.73 19.83 95.73 19.49 95.73 19.07C95.75 18.65 95.74 18.27 95.7 17.93C95.68 17.73 95.66 17.55 95.64 17.39C95.62 17.21 95.62 17.02 95.64 16.82C95.64 16.72 95.61 16.58 95.55 16.4C95.51 16.22 95.47 16.08 95.43 15.98C95.21 15.98 94.95 15.98 94.65 15.98C94.37 15.96 94.11 15.96 93.87 15.98C93.51 16 93.21 16.02 92.97 16.04C92.75 16.04 92.54 16.04 92.34 16.04C92.14 16.04 91.92 16.04 91.68 16.04C91.46 16.04 91.17 16.03 90.81 16.01C90.57 15.99 90.32 15.99 90.06 16.01C89.8 16.03 89.55 16.04 89.31 16.04C89.21 15.88 89.18 15.66 89.22 15.38C89.26 15.08 89.23 14.81 89.13 14.57C89.13 14.49 89.13 14.41 89.13 14.33C89.15 14.25 89.21 14.17 89.31 14.09H89.79C90.01 14.11 90.24 14.13 90.48 14.15C90.72 14.15 90.95 14.13 91.17 14.09C91.33 14.07 91.52 14.07 91.74 14.09C91.98 14.09 92.17 14.08 92.31 14.06C92.71 14 93.09 14 93.45 14.06C93.83 14.1 94.22 14.11 94.62 14.09C94.88 14.09 95.22 14.09 95.64 14.09C96.06 14.07 96.44 14.08 96.78 14.12C96.88 14.12 97.08 14.13 97.38 14.15C97.7 14.17 98.03 14.19 98.37 14.21C98.73 14.23 99.06 14.24 99.36 14.24C99.68 14.24 99.89 14.24 99.99 14.24C100.21 14.24 100.45 14.25 100.71 14.27C100.99 14.27 101.25 14.32 101.49 14.42V15.44C101.49 15.52 101.49 15.61 101.49 15.71C101.51 15.79 101.51 15.88 101.49 15.98C101.37 15.98 101.14 16.01 100.8 16.07C100.46 16.11 100.13 16.18 99.81 16.28V16.43C99.83 16.47 99.84 16.6 99.84 16.82C99.84 17.02 99.84 17.24 99.84 17.48C99.84 17.7 99.84 17.91 99.84 18.11C99.84 18.31 99.83 18.42 99.81 18.44C99.81 18.8 99.8 19.15 99.78 19.49C99.76 19.81 99.73 20.15 99.69 20.51C99.69 20.67 99.68 20.81 99.66 20.93C99.64 21.03 99.63 21.16 99.63 21.32C99.63 21.52 99.62 21.7 99.6 21.86C99.6 22.02 99.56 22.18 99.48 22.34C99.48 22.6 99.45 22.89 99.39 23.21C99.33 23.51 99.3 23.79 99.3 24.05C99.28 24.41 99.24 24.77 99.18 25.13C99.12 25.47 99.08 25.82 99.06 26.18C99.02 26.58 98.92 26.97 98.76 27.35C98.6 27.71 98.5 28.08 98.46 28.46C98.46 28.52 98.43 28.62 98.37 28.76C98.33 28.88 98.27 29.02 98.19 29.18C98.13 29.32 98.07 29.45 98.01 29.57C97.95 29.69 97.9 29.78 97.86 29.84L97.5 30.35C97.46 30.41 97.37 30.53 97.23 30.71C97.11 30.89 97 31.02 96.9 31.1C96.74 31.24 96.56 31.4 96.36 31.58C96.18 31.74 95.99 31.89 95.79 32.03C95.61 32.19 95.44 32.32 95.28 32.42C95.14 32.54 95.03 32.6 94.95 32.6C94.87 32.62 94.74 32.66 94.56 32.72C94.38 32.78 94.19 32.84 93.99 32.9C93.79 32.98 93.61 33.05 93.45 33.11C93.31 33.17 93.24 33.2 93.24 33.2H93ZM117.297 21.17C117.697 21.85 118.117 22.57 118.557 23.33C119.017 24.09 119.507 24.89 120.027 25.73C120.127 26.01 120.247 26.27 120.387 26.51C120.547 26.73 120.707 26.92 120.867 27.08C120.947 27.24 121.047 27.44 121.167 27.68C121.287 27.9 121.407 28.09 121.527 28.25L121.587 28.13V26.6C121.587 26.56 121.587 26.54 121.587 26.54C121.607 26.52 121.617 26.49 121.617 26.45C121.537 25.99 121.517 25.58 121.557 25.22C121.617 24.84 121.627 24.44 121.587 24.02C121.607 23.88 121.617 23.75 121.617 23.63C121.617 23.51 121.617 23.39 121.617 23.27L121.557 21.71V17.99C121.557 17.91 121.557 17.76 121.557 17.54C121.577 17.32 121.587 17.08 121.587 16.82C121.587 16.54 121.587 16.27 121.587 16.01C121.587 15.75 121.587 15.55 121.587 15.41C121.587 15.33 121.597 15.26 121.617 15.2C121.657 15.12 121.757 15.08 121.917 15.08H122.907C123.087 15.08 123.297 15.11 123.537 15.17C123.777 15.23 123.937 15.26 124.017 15.26H124.167C124.167 15.94 124.167 16.64 124.167 17.36C124.187 18.06 124.197 18.73 124.197 19.37C124.217 19.99 124.237 20.57 124.257 21.11C124.277 21.63 124.297 22.05 124.317 22.37C124.297 22.53 124.287 22.69 124.287 22.85C124.307 22.99 124.307 23.14 124.287 23.3C124.267 23.52 124.257 23.74 124.257 23.96C124.277 24.18 124.287 24.4 124.287 24.62V26.06C124.307 26.6 124.297 27.03 124.257 27.35C124.237 27.67 124.227 27.86 124.227 27.92C124.207 28.2 124.197 28.48 124.197 28.76C124.197 29.04 124.197 29.32 124.197 29.6C124.217 29.98 124.217 30.36 124.197 30.74C124.177 31.1 124.177 31.47 124.197 31.85C124.197 32.01 124.197 32.16 124.197 32.3C124.197 32.44 124.207 32.59 124.227 32.75C124.227 32.85 124.117 32.9 123.897 32.9H122.907C122.667 32.94 122.477 32.95 122.337 32.93C122.197 32.91 122.097 32.9 122.037 32.9C121.937 32.64 121.847 32.42 121.767 32.24C121.687 32.08 121.597 31.92 121.497 31.76C121.417 31.6 121.327 31.44 121.227 31.28C121.127 31.1 121.007 30.89 120.867 30.65C120.807 30.55 120.727 30.42 120.627 30.26C120.527 30.08 120.437 29.94 120.357 29.84C120.237 29.7 120.137 29.54 120.057 29.36C119.977 29.16 119.847 28.98 119.667 28.82C119.407 28.42 119.157 28.01 118.917 27.59C118.677 27.15 118.417 26.71 118.137 26.27C117.857 25.85 117.537 25.42 117.177 24.98C116.817 24.52 116.457 24.01 116.097 23.45C115.937 23.07 115.697 22.68 115.377 22.28C115.077 21.88 114.817 21.5 114.597 21.14C114.597 21.1 114.587 21.18 114.567 21.38C114.567 21.58 114.567 21.81 114.567 22.07C114.567 22.31 114.557 22.54 114.537 22.76C114.537 22.96 114.537 23.06 114.537 23.06V23.3C114.557 23.46 114.557 23.62 114.537 23.78C114.517 23.92 114.507 24.07 114.507 24.23L114.447 27.95L114.507 29.51C114.507 29.63 114.507 29.75 114.507 29.87C114.527 29.99 114.527 30.12 114.507 30.26C114.547 30.54 114.557 30.84 114.537 31.16C114.517 31.46 114.517 31.76 114.537 32.06C114.557 32.34 114.547 32.54 114.507 32.66C114.487 32.78 114.457 32.86 114.417 32.9H112.047C111.887 32.9 111.717 32.9 111.537 32.9C111.377 32.92 111.217 32.92 111.057 32.9C111.037 32.9 111.017 32.81 110.997 32.63C110.997 32.47 110.997 32.27 110.997 32.03C110.997 31.81 110.997 31.58 110.997 31.34C110.997 31.1 110.997 30.92 110.997 30.8C110.997 30.52 110.997 30.24 110.997 29.96C111.017 29.66 111.017 29.37 110.997 29.09C110.997 28.81 111.007 28.54 111.027 28.28C111.047 28 111.047 27.72 111.027 27.44C111.027 27.24 111.017 27.08 110.997 26.96C110.997 26.82 110.997 26.7 110.997 26.6L110.937 26.15C110.937 26.11 110.937 26.09 110.937 26.09C110.957 26.07 110.967 26.04 110.967 26C110.887 25.54 110.857 25.09 110.877 24.65C110.917 24.21 110.917 23.78 110.877 23.36C110.897 23.22 110.907 23.09 110.907 22.97C110.907 22.85 110.907 22.73 110.907 22.61L110.847 21.05L110.937 17.33C110.937 17.17 110.927 17.02 110.907 16.88C110.907 16.72 110.897 16.56 110.877 16.4L111.057 16.13C111.157 16.13 111.327 16.13 111.567 16.13C111.807 16.11 112.087 16.11 112.407 16.13C112.667 16.13 112.857 16.12 112.977 16.1C113.117 16.06 113.267 16.04 113.427 16.04C113.527 16.04 113.607 16.06 113.667 16.1C113.747 16.12 113.847 16.13 113.967 16.13H114.597C114.657 16.29 114.737 16.46 114.837 16.64C114.957 16.82 115.067 17.01 115.167 17.21C115.387 17.65 115.547 18.03 115.647 18.35C115.767 18.65 115.877 18.87 115.977 19.01C116.057 19.11 116.157 19.25 116.277 19.43C116.397 19.61 116.517 19.8 116.637 20C116.757 20.2 116.867 20.41 116.967 20.63C117.087 20.83 117.197 21.01 117.297 21.17ZM143.908 28.85C144.148 29.07 144.388 29.28 144.628 29.48C144.868 29.66 145.078 29.84 145.258 30.02C145.378 30.12 145.538 30.26 145.738 30.44C145.938 30.6 146.118 30.71 146.278 30.77C146.378 30.87 146.488 30.96 146.608 31.04C146.748 31.12 146.858 31.2 146.938 31.28C147.038 31.38 147.138 31.48 147.238 31.58C147.338 31.66 147.418 31.76 147.478 31.88C147.458 31.92 147.438 31.97 147.418 32.03C147.378 32.13 147.328 32.21 147.268 32.27C147.108 32.43 146.978 32.58 146.878 32.72C146.778 32.88 146.678 33.01 146.578 33.11L146.338 33.35C146.298 33.39 146.278 33.42 146.278 33.44C146.178 33.44 146.088 33.4 146.008 33.32C145.928 33.24 145.838 33.16 145.738 33.08C145.478 32.92 145.298 32.79 145.198 32.69C145.118 32.61 144.948 32.53 144.688 32.45C144.628 32.41 144.518 32.35 144.358 32.27C144.218 32.19 144.118 32.13 144.058 32.09C143.798 32.01 143.548 31.88 143.308 31.7C143.068 31.52 142.808 31.35 142.528 31.19L140.188 29.66C139.988 29.56 139.798 29.45 139.618 29.33C139.458 29.21 139.278 29.1 139.078 29C138.938 28.92 138.818 28.85 138.718 28.79C138.638 28.71 138.538 28.62 138.418 28.52C138.258 28.42 138.088 28.32 137.908 28.22C137.728 28.12 137.558 28.04 137.398 27.98L137.158 27.86V28.04C137.158 28.2 137.138 28.35 137.098 28.49C137.078 28.63 137.068 28.75 137.068 28.85C137.048 29.37 137.018 29.89 136.978 30.41C136.938 30.91 136.918 31.42 136.918 31.94C136.918 32.1 136.908 32.26 136.888 32.42C136.888 32.58 136.838 32.74 136.738 32.9H136.588C136.348 32.9 136.148 32.89 135.988 32.87C135.828 32.87 135.638 32.88 135.418 32.9C135.258 32.92 135.118 32.92 134.998 32.9C134.878 32.9 134.738 32.9 134.578 32.9C134.558 32.84 134.528 32.79 134.488 32.75C134.448 32.71 134.428 32.66 134.428 32.6C134.468 32.24 134.458 31.68 134.398 30.92C134.358 30.16 134.338 29.3 134.338 28.34C134.338 28.08 134.338 27.83 134.338 27.59C134.358 27.35 134.358 27.1 134.338 26.84C134.298 26.52 134.278 26.2 134.278 25.88C134.278 25.56 134.288 25.23 134.308 24.89V24.05C134.308 23.75 134.298 23.45 134.278 23.15C134.258 22.83 134.248 22.51 134.248 22.19C134.248 22.03 134.248 21.87 134.248 21.71C134.268 21.55 134.288 21.39 134.308 21.23C134.308 21.07 134.288 20.9 134.248 20.72C134.228 20.54 134.238 20.37 134.278 20.21C134.278 20.15 134.278 19.97 134.278 19.67C134.298 19.37 134.308 19.04 134.308 18.68C134.308 18.32 134.298 17.97 134.278 17.63C134.278 17.27 134.278 17 134.278 16.82L134.218 15.29C134.318 15.19 134.378 15.14 134.398 15.14C134.438 15.12 134.508 15.11 134.608 15.11C134.648 15.11 134.678 15.12 134.698 15.14C134.718 15.14 134.738 15.14 134.758 15.14C134.778 15.14 134.888 15.15 135.088 15.17C135.288 15.17 135.508 15.18 135.748 15.2C135.988 15.2 136.208 15.21 136.408 15.23C136.628 15.23 136.748 15.24 136.768 15.26C136.788 15.42 136.798 15.55 136.798 15.65C136.798 15.75 136.788 15.85 136.768 15.95C136.768 16.05 136.758 16.17 136.738 16.31C136.738 16.43 136.738 16.59 136.738 16.79V17.36C136.658 17.92 136.608 18.49 136.588 19.07C136.588 19.63 136.588 20.18 136.588 20.72C136.568 21.32 136.538 21.76 136.498 22.04C136.478 22.3 136.468 22.61 136.468 22.97V23.6C136.468 23.7 136.458 23.78 136.438 23.84C136.438 23.9 136.488 23.93 136.588 23.93L136.738 23.78C136.838 23.68 136.938 23.57 137.038 23.45C137.138 23.31 137.228 23.2 137.308 23.12C137.328 23.08 137.388 23.01 137.488 22.91C137.588 22.79 137.658 22.71 137.698 22.67C137.918 22.31 138.108 22.05 138.268 21.89C138.448 21.73 138.618 21.51 138.778 21.23C138.898 21.05 139.008 20.87 139.108 20.69C139.228 20.51 139.368 20.34 139.528 20.18C139.528 20.18 139.548 20.16 139.588 20.12C139.688 19.9 139.808 19.7 139.948 19.52C140.088 19.32 140.228 19.11 140.368 18.89C140.528 18.67 140.678 18.44 140.818 18.2C140.978 17.96 141.138 17.73 141.298 17.51L143.068 14.9L143.428 14.36C143.468 14.3 143.528 14.23 143.608 14.15C143.708 14.07 143.788 14.01 143.848 13.97C143.928 14.03 144.048 14.11 144.208 14.21C144.368 14.31 144.558 14.44 144.778 14.6C144.938 14.7 145.088 14.81 145.228 14.93C145.388 15.03 145.518 15.2 145.618 15.44C145.618 15.5 145.548 15.64 145.408 15.86C145.268 16.08 145.118 16.32 144.958 16.58C144.798 16.82 144.648 17.05 144.508 17.27C144.368 17.47 144.288 17.59 144.268 17.63C144.148 17.83 144.038 18.04 143.938 18.26C143.858 18.46 143.768 18.61 143.668 18.71C143.508 18.91 143.358 19.13 143.218 19.37C143.098 19.59 142.968 19.81 142.828 20.03C142.608 20.37 142.368 20.69 142.108 20.99C141.868 21.29 141.628 21.59 141.388 21.89C141.168 22.19 140.948 22.48 140.728 22.76C140.508 23.04 140.368 23.2 140.308 23.24C140.168 23.4 140.028 23.55 139.888 23.69C139.748 23.81 139.608 23.94 139.468 24.08C139.328 24.22 139.208 24.37 139.108 24.53C139.008 24.67 138.908 24.8 138.808 24.92C138.888 24.98 138.938 25.04 138.958 25.1C138.998 25.16 139.068 25.22 139.168 25.28C139.408 25.44 139.658 25.64 139.918 25.88C140.178 26.12 140.428 26.32 140.668 26.48C141.008 26.66 141.318 26.87 141.598 27.11C141.878 27.33 142.188 27.58 142.528 27.86C142.608 27.96 142.728 28.05 142.888 28.13C143.068 28.21 143.238 28.34 143.398 28.52C143.478 28.6 143.558 28.67 143.638 28.73C143.738 28.77 143.828 28.81 143.908 28.85ZM167.34 26.12C167.4 26.18 167.44 26.28 167.46 26.42C167.48 26.54 167.49 26.67 167.49 26.81C167.51 26.93 167.52 27.05 167.52 27.17C167.52 27.27 167.52 27.35 167.52 27.41C167.56 27.69 167.55 28.01 167.49 28.37C167.45 28.73 167.35 29.04 167.19 29.3L166.8 29.96C166.64 30.2 166.5 30.37 166.38 30.47C166.28 30.55 166.14 30.7 165.96 30.92C165.88 31.04 165.78 31.15 165.66 31.25C165.54 31.33 165.43 31.42 165.33 31.52L164.73 31.79C164.57 31.87 164.39 31.94 164.19 32C164.01 32.06 163.84 32.09 163.68 32.09C163.18 32.17 162.68 32.25 162.18 32.33C161.68 32.41 161.17 32.45 160.65 32.45C160.49 32.45 160.3 32.45 160.08 32.45C159.86 32.47 159.67 32.48 159.51 32.48C159.35 32.5 159.17 32.47 158.97 32.39C158.79 32.33 158.64 32.3 158.52 32.3L157.62 32.21C157.52 32.19 157.38 32.17 157.2 32.15C157.02 32.13 156.86 32.12 156.72 32.12V31.4C156.74 31.3 156.75 31.2 156.75 31.1C156.75 30.98 156.75 30.86 156.75 30.74C156.73 30.52 156.73 30.31 156.75 30.11C156.77 29.89 156.77 29.67 156.75 29.45C156.73 29.35 156.72 29.25 156.72 29.15C156.72 29.03 156.72 28.92 156.72 28.82C156.74 28.62 156.73 28.42 156.69 28.22C156.65 28.02 156.65 27.82 156.69 27.62C156.77 27.26 156.8 26.9 156.78 26.54C156.76 26.18 156.74 25.79 156.72 25.37C156.7 25.17 156.69 24.98 156.69 24.8C156.69 24.62 156.69 24.44 156.69 24.26L156.72 22.76C156.72 22.64 156.72 22.48 156.72 22.28C156.72 22.08 156.71 21.88 156.69 21.68C156.69 21.46 156.68 21.26 156.66 21.08C156.66 20.9 156.66 20.77 156.66 20.69C156.62 20.51 156.62 20.31 156.66 20.09C156.68 19.95 156.69 19.8 156.69 19.64C156.71 19.48 156.72 19.32 156.72 19.16C156.76 18.84 156.77 18.47 156.75 18.05C156.75 17.61 156.75 17.22 156.75 16.88C156.75 16.64 156.76 16.42 156.78 16.22C156.8 16.02 156.82 15.89 156.84 15.83C156.82 15.55 156.82 15.33 156.84 15.17C156.86 15.01 156.87 14.88 156.87 14.78H160.05C160.45 14.78 160.86 14.81 161.28 14.87C161.7 14.91 162.12 14.95 162.54 14.99C162.72 15.03 162.85 15.07 162.93 15.11C163.07 15.15 163.19 15.18 163.29 15.2C163.39 15.22 163.48 15.25 163.56 15.29C163.66 15.39 163.79 15.49 163.95 15.59C164.11 15.69 164.26 15.79 164.4 15.89C164.56 15.97 164.7 16.07 164.82 16.19C164.96 16.29 165.05 16.4 165.09 16.52C165.13 16.62 165.18 16.73 165.24 16.85C165.32 16.95 165.38 17.05 165.42 17.15C165.48 17.39 165.52 17.71 165.54 18.11C165.58 18.49 165.58 18.88 165.54 19.28C165.5 19.68 165.42 20.06 165.3 20.42C165.2 20.78 165.05 21.06 164.85 21.26C164.63 21.56 164.4 21.81 164.16 22.01C163.94 22.19 163.74 22.33 163.56 22.43C163.46 22.43 163.37 22.46 163.29 22.52C163.21 22.56 163.13 22.58 163.05 22.58C163.21 22.68 163.34 22.74 163.44 22.76C163.54 22.76 163.67 22.81 163.83 22.91C163.87 22.91 163.94 22.93 164.04 22.97C164.14 23.01 164.21 23.03 164.25 23.03C164.41 23.03 164.57 23.08 164.73 23.18C164.91 23.28 165.13 23.39 165.39 23.51C165.45 23.55 165.53 23.61 165.63 23.69C165.75 23.75 165.87 23.83 165.99 23.93C166.11 24.01 166.22 24.09 166.32 24.17C166.42 24.25 166.49 24.32 166.53 24.38C166.69 24.54 166.77 24.65 166.77 24.71C166.77 24.77 166.84 24.89 166.98 25.07C167.1 25.23 167.18 25.39 167.22 25.55C167.26 25.71 167.3 25.9 167.34 26.12ZM160.08 30.05C160.16 30.05 160.28 30.04 160.44 30.02C160.62 30 160.79 29.98 160.95 29.96C161.13 29.94 161.29 29.93 161.43 29.93C161.57 29.91 161.64 29.9 161.64 29.9C161.78 29.86 161.91 29.83 162.03 29.81C162.17 29.77 162.3 29.73 162.42 29.69C162.74 29.55 162.96 29.38 163.08 29.18C163.22 28.98 163.36 28.73 163.5 28.43C163.6 28.21 163.66 27.97 163.68 27.71C163.72 27.45 163.73 27.21 163.71 26.99C163.71 26.85 163.71 26.72 163.71 26.6C163.71 26.48 163.7 26.35 163.68 26.21C163.68 26.03 163.65 25.82 163.59 25.58C163.55 25.32 163.45 25.13 163.29 25.01C163.15 24.79 162.89 24.62 162.51 24.5C162.13 24.36 161.81 24.27 161.55 24.23C161.37 24.23 161.2 24.23 161.04 24.23C160.9 24.21 160.78 24.16 160.68 24.08H158.76C158.78 24.12 158.78 24.21 158.76 24.35C158.76 24.49 158.76 24.58 158.76 24.62C158.76 25.08 158.74 25.55 158.7 26.03C158.66 26.49 158.65 26.91 158.67 27.29L158.73 28.67C158.73 28.71 158.73 28.79 158.73 28.91C158.73 29.03 158.73 29.16 158.73 29.3C158.73 29.44 158.73 29.57 158.73 29.69C158.73 29.79 158.73 29.86 158.73 29.9C158.97 29.94 159.2 29.97 159.42 29.99C159.64 30.01 159.86 30.03 160.08 30.05ZM159.69 20.78C159.77 20.78 159.88 20.74 160.02 20.66C160.18 20.56 160.3 20.43 160.38 20.27C160.48 20.11 160.58 19.91 160.68 19.67C160.78 19.43 160.78 19.19 160.68 18.95C160.68 18.69 160.61 18.43 160.47 18.17C160.33 17.91 160.12 17.73 159.84 17.63C159.76 17.63 159.71 17.63 159.69 17.63C159.67 17.61 159.62 17.6 159.54 17.6C159.46 17.64 159.41 17.65 159.39 17.63C159.37 17.61 159.31 17.6 159.21 17.6H159.03C159.03 18.12 159.01 18.65 158.97 19.19C158.93 19.73 158.95 20.26 159.03 20.78H159.69Z" fill="#00061E"/>
<g clip-path="url(#clip0_209_25)">
<path d="M37.4999 74.9998C58.2106 74.9998 74.9998 58.2106 74.9998 37.4999C74.9998 16.7893 58.2106 0 37.4999 0C16.7893 0 0 16.7893 0 37.4999C0 58.2106 16.7893 74.9998 37.4999 74.9998Z" fill="#445EC1"/>
<path d="M49.2046 15.7561C44.6315 13.2152 40.7851 17.2406 37.4981 17.2406C33.5083 17.2406 30.3647 13.2152 25.7916 15.7561C21.1297 18.3449 16.3404 22.4414 24.1135 33.5777C24.1135 33.5777 24.7553 55.588 29.2438 60.0775C29.2438 60.0775 31.6667 60.4233 31.6667 54.5541C31.6667 54.5541 29.6831 38.8661 37.4981 38.432C45.3113 38.8654 43.3283 54.5541 43.3283 54.5541C43.3283 60.4235 45.7525 60.0775 45.7525 60.0775C50.241 55.588 50.8816 33.5777 50.8816 33.5777C58.6546 22.4414 53.8653 18.3449 49.2046 15.7561Z" fill="white"/>
</g>
<path d="M88.4697 47.0469H89.6865L92.291 55.1611L94.8887 47.0469H96.1055L92.7627 57H91.8057L88.4697 47.0469ZM88.0732 47.0469H89.1396L89.3242 53.1172V57H88.0732V47.0469ZM95.4287 47.0469H96.4951V57H95.2441V53.1172L95.4287 47.0469ZM98.2383 53.6572V52.9531C98.2383 52.3789 98.3112 51.8753 98.457 51.4424C98.6029 51.0049 98.8057 50.6403 99.0654 50.3486C99.3252 50.057 99.6283 49.8382 99.9746 49.6924C100.321 49.542 100.692 49.4668 101.089 49.4668C101.494 49.4668 101.87 49.542 102.217 49.6924C102.563 49.8382 102.866 50.057 103.126 50.3486C103.39 50.6403 103.595 51.0049 103.741 51.4424C103.887 51.8753 103.96 52.3789 103.96 52.9531V53.6572C103.96 54.2314 103.887 54.7373 103.741 55.1748C103.595 55.6077 103.393 55.9701 103.133 56.2617C102.873 56.5534 102.57 56.7721 102.224 56.918C101.877 57.0638 101.504 57.1367 101.103 57.1367C100.701 57.1367 100.328 57.0638 99.9814 56.918C99.6351 56.7721 99.3298 56.5534 99.0654 56.2617C98.8057 55.9701 98.6029 55.6077 98.457 55.1748C98.3112 54.7373 98.2383 54.2314 98.2383 53.6572ZM99.4482 52.9531V53.6572C99.4482 54.0628 99.4893 54.4183 99.5713 54.7236C99.6533 55.029 99.7695 55.2842 99.9199 55.4893C100.07 55.6943 100.246 55.8493 100.446 55.9541C100.647 56.0544 100.866 56.1045 101.103 56.1045C101.376 56.1045 101.615 56.0544 101.82 55.9541C102.03 55.8493 102.203 55.6943 102.34 55.4893C102.477 55.2842 102.579 55.029 102.647 54.7236C102.716 54.4183 102.75 54.0628 102.75 53.6572V52.9531C102.75 52.5475 102.709 52.1943 102.627 51.8936C102.545 51.5882 102.429 51.333 102.278 51.1279C102.128 50.9183 101.95 50.7633 101.745 50.6631C101.545 50.5583 101.326 50.5059 101.089 50.5059C100.856 50.5059 100.64 50.5583 100.439 50.6631C100.239 50.7633 100.063 50.9183 99.9131 51.1279C99.7673 51.333 99.6533 51.5882 99.5713 51.8936C99.4893 52.1943 99.4482 52.5475 99.4482 52.9531ZM109.395 55.5645V46.5H110.598V57H109.497L109.395 55.5645ZM105.259 53.6572V52.9668C105.259 52.3561 105.318 51.832 105.437 51.3945C105.555 50.9525 105.724 50.5902 105.942 50.3076C106.161 50.0205 106.423 49.8086 106.729 49.6719C107.034 49.5352 107.371 49.4668 107.74 49.4668C108.123 49.4668 108.451 49.5443 108.725 49.6992C109.003 49.8542 109.235 50.0798 109.422 50.376C109.609 50.6676 109.755 51.0231 109.859 51.4424C109.969 51.8571 110.042 52.3265 110.078 52.8506V53.7734C110.037 54.293 109.962 54.7601 109.853 55.1748C109.748 55.5895 109.602 55.9427 109.415 56.2344C109.228 56.526 108.996 56.7493 108.718 56.9043C108.44 57.0592 108.109 57.1367 107.727 57.1367C107.362 57.1367 107.029 57.0661 106.729 56.9248C106.428 56.779 106.166 56.5625 105.942 56.2754C105.724 55.9837 105.555 55.6214 105.437 55.1885C105.318 54.751 105.259 54.2406 105.259 53.6572ZM106.469 52.9668V53.6572C106.469 54.0674 106.498 54.4251 106.558 54.7305C106.617 55.0312 106.71 55.2819 106.838 55.4824C106.965 55.6784 107.127 55.8242 107.323 55.9199C107.524 56.0156 107.763 56.0635 108.041 56.0635C108.378 56.0635 108.654 55.9814 108.868 55.8174C109.082 55.6533 109.253 55.4368 109.381 55.168C109.513 54.8945 109.618 54.6006 109.695 54.2861V52.3447C109.65 52.1123 109.584 51.889 109.497 51.6748C109.41 51.4561 109.301 51.2624 109.169 51.0938C109.041 50.9206 108.884 50.7839 108.697 50.6836C108.515 50.5833 108.301 50.5332 108.055 50.5332C107.777 50.5332 107.535 50.5833 107.33 50.6836C107.13 50.7839 106.965 50.9342 106.838 51.1348C106.715 51.3353 106.621 51.5882 106.558 51.8936C106.498 52.1989 106.469 52.5566 106.469 52.9668ZM115.109 57.1367C114.667 57.1367 114.269 57.0706 113.913 56.9385C113.558 56.8063 113.255 56.6058 113.004 56.3369C112.753 56.0635 112.562 55.7194 112.43 55.3047C112.298 54.89 112.231 54.4001 112.231 53.835V53.001C112.231 52.3493 112.307 51.7979 112.457 51.3467C112.612 50.8955 112.819 50.5332 113.079 50.2598C113.339 49.9818 113.633 49.7812 113.961 49.6582C114.289 49.5306 114.626 49.4668 114.973 49.4668C115.438 49.4668 115.834 49.542 116.162 49.6924C116.49 49.8428 116.757 50.0661 116.962 50.3623C117.167 50.6585 117.317 51.0231 117.413 51.4561C117.513 51.889 117.563 52.388 117.563 52.9531V53.6572H112.942V52.625H116.354V52.4541C116.335 52.0713 116.283 51.734 116.196 51.4424C116.114 51.1507 115.978 50.9229 115.786 50.7588C115.595 50.5902 115.324 50.5059 114.973 50.5059C114.749 50.5059 114.542 50.5446 114.351 50.6221C114.164 50.695 114.002 50.8249 113.865 51.0117C113.733 51.194 113.628 51.4469 113.551 51.7705C113.478 52.0941 113.441 52.5042 113.441 53.001V53.835C113.441 54.2314 113.478 54.5732 113.551 54.8604C113.628 55.1429 113.74 55.3776 113.886 55.5645C114.036 55.7467 114.218 55.8835 114.433 55.9746C114.651 56.0612 114.9 56.1045 115.178 56.1045C115.583 56.1045 115.918 56.027 116.183 55.8721C116.447 55.7126 116.677 55.5098 116.873 55.2637L117.509 56.0225C117.377 56.2093 117.203 56.3893 116.989 56.5625C116.78 56.7311 116.52 56.8701 116.21 56.9795C115.905 57.0843 115.538 57.1367 115.109 57.1367ZM120.236 50.7656V57H119.026V49.6035H120.195L120.236 50.7656ZM122.075 49.5625L122.082 50.7383C121.982 50.7155 121.891 50.7018 121.809 50.6973C121.731 50.6882 121.64 50.6836 121.535 50.6836C121.307 50.6836 121.107 50.7292 120.934 50.8203C120.765 50.9115 120.619 51.0391 120.496 51.2031C120.373 51.3672 120.275 51.5632 120.202 51.791C120.129 52.0143 120.079 52.2604 120.052 52.5293L119.737 52.7344C119.737 52.2878 119.771 51.8685 119.84 51.4766C119.913 51.0846 120.024 50.7383 120.175 50.4375C120.325 50.1322 120.517 49.8952 120.749 49.7266C120.986 49.5534 121.269 49.4668 121.597 49.4668C121.67 49.4668 121.758 49.4782 121.863 49.501C121.973 49.5192 122.043 49.5397 122.075 49.5625ZM124.502 51.1826V57H123.292V49.6035H124.434L124.502 51.1826ZM124.208 53.0215L123.716 53.001C123.711 52.4951 123.768 52.028 123.887 51.5996C124.01 51.1667 124.183 50.7907 124.406 50.4717C124.634 50.1527 124.905 49.9066 125.22 49.7334C125.534 49.5557 125.883 49.4668 126.266 49.4668C126.566 49.4668 126.84 49.5169 127.086 49.6172C127.332 49.7129 127.542 49.8678 127.715 50.082C127.888 50.2962 128.02 50.5742 128.111 50.916C128.207 51.2533 128.255 51.6657 128.255 52.1533V57H127.045V52.1396C127.045 51.7523 127.002 51.4424 126.915 51.21C126.833 50.973 126.705 50.8021 126.532 50.6973C126.364 50.5879 126.149 50.5332 125.89 50.5332C125.653 50.5332 125.432 50.5993 125.227 50.7314C125.021 50.8636 124.841 51.0459 124.687 51.2783C124.536 51.5107 124.418 51.7773 124.331 52.0781C124.249 52.3743 124.208 52.6888 124.208 53.0215ZM135.706 57H134.011L134.024 55.9268H135.706C136.303 55.9268 136.788 55.8128 137.162 55.585C137.536 55.3525 137.812 55.0107 137.989 54.5596C138.167 54.1038 138.256 53.541 138.256 52.8711V51.1689C138.256 50.6403 138.206 50.1846 138.105 49.8018C138.005 49.4189 137.855 49.1045 137.654 48.8584C137.454 48.6123 137.201 48.43 136.896 48.3115C136.59 48.1885 136.232 48.127 135.822 48.127H133.977V47.0469H135.822C136.383 47.0469 136.889 47.1357 137.34 47.3135C137.791 47.4867 138.178 47.7487 138.502 48.0996C138.826 48.446 139.072 48.8766 139.24 49.3916C139.413 49.9066 139.5 50.5036 139.5 51.1826V52.8711C139.5 53.5501 139.413 54.1471 139.24 54.6621C139.072 55.1771 138.823 55.6077 138.495 55.9541C138.167 56.3005 137.768 56.5625 137.299 56.7402C136.834 56.9134 136.303 57 135.706 57ZM134.708 47.0469V57H133.45V47.0469H134.708ZM143.93 57.1367C143.488 57.1367 143.089 57.0706 142.733 56.9385C142.378 56.8063 142.075 56.6058 141.824 56.3369C141.574 56.0635 141.382 55.7194 141.25 55.3047C141.118 54.89 141.052 54.4001 141.052 53.835V53.001C141.052 52.3493 141.127 51.7979 141.277 51.3467C141.432 50.8955 141.64 50.5332 141.899 50.2598C142.159 49.9818 142.453 49.7812 142.781 49.6582C143.109 49.5306 143.447 49.4668 143.793 49.4668C144.258 49.4668 144.654 49.542 144.982 49.6924C145.311 49.8428 145.577 50.0661 145.782 50.3623C145.987 50.6585 146.138 51.0231 146.233 51.4561C146.334 51.889 146.384 52.388 146.384 52.9531V53.6572H141.763V52.625H145.174V52.4541C145.156 52.0713 145.103 51.734 145.017 51.4424C144.935 51.1507 144.798 50.9229 144.606 50.7588C144.415 50.5902 144.144 50.5059 143.793 50.5059C143.57 50.5059 143.362 50.5446 143.171 50.6221C142.984 50.695 142.822 50.8249 142.686 51.0117C142.553 51.194 142.449 51.4469 142.371 51.7705C142.298 52.0941 142.262 52.5042 142.262 53.001V53.835C142.262 54.2314 142.298 54.5732 142.371 54.8604C142.449 55.1429 142.56 55.3776 142.706 55.5645C142.856 55.7467 143.039 55.8835 143.253 55.9746C143.472 56.0612 143.72 56.1045 143.998 56.1045C144.404 56.1045 144.739 56.027 145.003 55.8721C145.267 55.7126 145.497 55.5098 145.693 55.2637L146.329 56.0225C146.197 56.2093 146.024 56.3893 145.81 56.5625C145.6 56.7311 145.34 56.8701 145.03 56.9795C144.725 57.0843 144.358 57.1367 143.93 57.1367ZM149.057 51.1826V57H147.847V49.6035H148.988L149.057 51.1826ZM148.763 53.0215L148.271 53.001C148.266 52.4951 148.323 52.028 148.441 51.5996C148.564 51.1667 148.738 50.7907 148.961 50.4717C149.189 50.1527 149.46 49.9066 149.774 49.7334C150.089 49.5557 150.438 49.4668 150.82 49.4668C151.121 49.4668 151.395 49.5169 151.641 49.6172C151.887 49.7129 152.096 49.8678 152.27 50.082C152.443 50.2962 152.575 50.5742 152.666 50.916C152.762 51.2533 152.81 51.6657 152.81 52.1533V57H151.6V52.1396C151.6 51.7523 151.556 51.4424 151.47 51.21C151.388 50.973 151.26 50.8021 151.087 50.6973C150.918 50.5879 150.704 50.5332 150.444 50.5332C150.207 50.5332 149.986 50.5993 149.781 50.7314C149.576 50.8636 149.396 51.0459 149.241 51.2783C149.091 51.5107 148.972 51.7773 148.886 52.0781C148.804 52.3743 148.763 52.6888 148.763 53.0215ZM157.328 49.6035V50.5742H153.876V49.6035H157.328ZM155.004 47.8057H156.214V55.168C156.214 55.4186 156.243 55.6077 156.303 55.7354C156.367 55.863 156.446 55.9473 156.542 55.9883C156.638 56.0293 156.74 56.0498 156.85 56.0498C156.932 56.0498 157.023 56.0407 157.123 56.0225C157.223 55.9997 157.292 55.9814 157.328 55.9678L157.321 57C157.239 57.0319 157.13 57.0615 156.993 57.0889C156.856 57.1208 156.683 57.1367 156.474 57.1367C156.214 57.1367 155.972 57.0752 155.749 56.9521C155.526 56.8291 155.346 56.624 155.209 56.3369C155.072 56.0452 155.004 55.6533 155.004 55.1611V47.8057ZM162.394 55.7354V51.7227C162.394 51.431 162.348 51.1963 162.257 51.0186C162.17 50.8408 162.038 50.7109 161.86 50.6289C161.687 50.5469 161.468 50.5059 161.204 50.5059C160.949 50.5059 160.728 50.5583 160.541 50.6631C160.359 50.7679 160.217 50.9069 160.117 51.0801C160.021 51.2533 159.974 51.4447 159.974 51.6543H158.764C158.764 51.39 158.821 51.1279 158.935 50.8682C159.053 50.6084 159.222 50.3737 159.44 50.1641C159.659 49.9499 159.921 49.7812 160.227 49.6582C160.536 49.5306 160.883 49.4668 161.266 49.4668C161.721 49.4668 162.125 49.542 162.476 49.6924C162.826 49.8382 163.102 50.0775 163.303 50.4102C163.503 50.7428 163.604 51.1849 163.604 51.7363V55.3867C163.604 55.6328 163.622 55.8949 163.658 56.1729C163.699 56.4508 163.756 56.6901 163.829 56.8906V57H162.578C162.519 56.8542 162.473 56.6605 162.441 56.4189C162.41 56.1729 162.394 55.945 162.394 55.7354ZM162.585 52.5156L162.599 53.4043H161.758C161.471 53.4043 161.209 53.4362 160.972 53.5C160.739 53.5638 160.539 53.6572 160.37 53.7803C160.201 53.8988 160.072 54.0469 159.98 54.2246C159.894 54.4023 159.851 54.6051 159.851 54.833C159.851 55.1292 159.892 55.3662 159.974 55.5439C160.056 55.7171 160.179 55.8424 160.343 55.9199C160.507 55.9974 160.714 56.0361 160.965 56.0361C161.27 56.0361 161.539 55.9655 161.771 55.8242C162.004 55.6829 162.184 55.512 162.312 55.3115C162.444 55.111 162.505 54.9242 162.496 54.751L162.763 55.3184C162.744 55.4961 162.685 55.6898 162.585 55.8994C162.489 56.1045 162.355 56.3027 162.182 56.4941C162.008 56.681 161.803 56.8359 161.566 56.959C161.334 57.0775 161.072 57.1367 160.78 57.1367C160.352 57.1367 159.976 57.0547 159.652 56.8906C159.333 56.7266 159.085 56.485 158.907 56.166C158.729 55.847 158.641 55.4528 158.641 54.9834C158.641 54.6279 158.702 54.2998 158.825 53.999C158.948 53.6982 159.131 53.4385 159.372 53.2197C159.614 52.9964 159.917 52.8232 160.281 52.7002C160.65 52.5771 161.076 52.5156 161.56 52.5156H162.585ZM166.782 46.5V57H165.579V46.5H166.782ZM177.057 53.835H178.314C178.283 54.5186 178.144 55.1087 177.897 55.6055C177.656 56.0977 177.303 56.4759 176.838 56.7402C176.378 57.0046 175.801 57.1367 175.108 57.1367C174.612 57.1367 174.163 57.0387 173.762 56.8428C173.361 56.6468 173.017 56.3665 172.729 56.002C172.447 55.6328 172.23 55.1908 172.08 54.6758C171.93 54.1608 171.854 53.582 171.854 52.9395V51.1006C171.854 50.4626 171.93 49.8861 172.08 49.3711C172.235 48.8561 172.456 48.4163 172.743 48.0518C173.035 47.6826 173.388 47.4001 173.803 47.2041C174.222 47.0081 174.696 46.9102 175.225 46.9102C175.872 46.9102 176.419 47.04 176.865 47.2998C177.316 47.555 177.663 47.931 177.904 48.4277C178.15 48.9199 178.287 49.5238 178.314 50.2393H177.057C177.025 49.7152 176.943 49.2891 176.811 48.9609C176.678 48.6283 176.482 48.3844 176.223 48.2295C175.967 48.07 175.635 47.9902 175.225 47.9902C174.86 47.9902 174.543 48.0632 174.274 48.209C174.01 48.3548 173.791 48.5645 173.618 48.8379C173.45 49.1068 173.322 49.4326 173.235 49.8154C173.153 50.1937 173.112 50.6175 173.112 51.0869V52.9395C173.112 53.377 173.146 53.7848 173.215 54.1631C173.288 54.5413 173.402 54.874 173.557 55.1611C173.716 55.4437 173.924 55.6647 174.179 55.8242C174.434 55.9837 174.744 56.0635 175.108 56.0635C175.569 56.0635 175.933 55.9883 176.202 55.8379C176.471 55.6875 176.669 55.4482 176.797 55.1201C176.929 54.792 177.016 54.3636 177.057 53.835ZM181.151 46.5V57H179.948V46.5H181.151ZM184.364 49.6035V57H183.161V49.6035H184.364ZM183.093 47.6416C183.093 47.4365 183.15 47.2633 183.264 47.1221C183.378 46.9808 183.549 46.9102 183.776 46.9102C184.004 46.9102 184.175 46.9808 184.289 47.1221C184.408 47.2633 184.467 47.4365 184.467 47.6416C184.467 47.8376 184.408 48.0062 184.289 48.1475C184.175 48.2842 184.004 48.3525 183.776 48.3525C183.549 48.3525 183.378 48.2842 183.264 48.1475C183.15 48.0062 183.093 47.8376 183.093 47.6416ZM187.488 51.1826V57H186.278V49.6035H187.42L187.488 51.1826ZM187.194 53.0215L186.702 53.001C186.698 52.4951 186.755 52.028 186.873 51.5996C186.996 51.1667 187.169 50.7907 187.393 50.4717C187.62 50.1527 187.892 49.9066 188.206 49.7334C188.521 49.5557 188.869 49.4668 189.252 49.4668C189.553 49.4668 189.826 49.5169 190.072 49.6172C190.318 49.7129 190.528 49.8678 190.701 50.082C190.874 50.2962 191.007 50.5742 191.098 50.916C191.193 51.2533 191.241 51.6657 191.241 52.1533V57H190.031V52.1396C190.031 51.7523 189.988 51.4424 189.901 51.21C189.819 50.973 189.692 50.8021 189.519 50.6973C189.35 50.5879 189.136 50.5332 188.876 50.5332C188.639 50.5332 188.418 50.5993 188.213 50.7314C188.008 50.8636 187.828 51.0459 187.673 51.2783C187.522 51.5107 187.404 51.7773 187.317 52.0781C187.235 52.3743 187.194 52.6888 187.194 53.0215ZM194.358 49.6035V57H193.155V49.6035H194.358ZM193.087 47.6416C193.087 47.4365 193.144 47.2633 193.258 47.1221C193.372 46.9808 193.543 46.9102 193.771 46.9102C193.998 46.9102 194.169 46.9808 194.283 47.1221C194.402 47.2633 194.461 47.4365 194.461 47.6416C194.461 47.8376 194.402 48.0062 194.283 48.1475C194.169 48.2842 193.998 48.3525 193.771 48.3525C193.543 48.3525 193.372 48.2842 193.258 48.1475C193.144 48.0062 193.087 47.8376 193.087 47.6416ZM198.836 56.1045C199.077 56.1045 199.296 56.0566 199.492 55.9609C199.693 55.8607 199.857 55.7057 199.984 55.4961C200.112 55.2819 200.185 55.0039 200.203 54.6621H201.338C201.32 55.1543 201.194 55.5872 200.962 55.9609C200.734 56.3301 200.433 56.6195 200.06 56.8291C199.69 57.0342 199.283 57.1367 198.836 57.1367C198.357 57.1367 197.94 57.0592 197.585 56.9043C197.234 56.7493 196.942 56.526 196.71 56.2344C196.482 55.9382 196.311 55.5804 196.197 55.1611C196.083 54.7373 196.026 54.2565 196.026 53.7188V52.8848C196.026 52.347 196.083 51.8685 196.197 51.4492C196.311 51.0254 196.482 50.6676 196.71 50.376C196.942 50.0798 197.234 49.8542 197.585 49.6992C197.94 49.5443 198.357 49.4668 198.836 49.4668C199.337 49.4668 199.77 49.5739 200.135 49.7881C200.504 49.9977 200.791 50.3031 200.996 50.7041C201.206 51.1006 201.32 51.5814 201.338 52.1465H200.203C200.185 51.7819 200.119 51.4788 200.005 51.2373C199.891 50.9912 199.736 50.8089 199.54 50.6904C199.344 50.5674 199.109 50.5059 198.836 50.5059C198.517 50.5059 198.253 50.5628 198.043 50.6768C197.838 50.7861 197.676 50.9456 197.558 51.1553C197.439 51.3649 197.355 51.6156 197.305 51.9072C197.259 52.1989 197.236 52.5247 197.236 52.8848V53.7188C197.236 54.0788 197.259 54.4069 197.305 54.7031C197.355 54.9948 197.437 55.2454 197.551 55.4551C197.669 55.6647 197.833 55.8265 198.043 55.9404C198.253 56.0498 198.517 56.1045 198.836 56.1045Z" fill="#A7A7A7"/>
<defs>
<clipPath id="clip0_209_25">
<rect width="75" height="75" fill="white"/>
</clipPath>
</defs>
</svg>
