<svg width="108" height="107" viewBox="0 0 108 107" fill="none" xmlns="http://www.w3.org/2000/svg">
<path d="M56.9383 4.8061C56.9383 6.31945 55.6202 7.6122 53.9102 7.6122C52.2002 7.6122 50.8821 6.31945 50.8821 4.8061C50.8821 3.29276 52.2002 2 53.9102 2C55.6202 2 56.9383 3.29276 56.9383 4.8061Z" fill="#232931" stroke="#A7A7A7" stroke-width="3"/>
<path d="M81.5955 4.8061C81.5955 6.31945 80.2774 7.6122 78.5674 7.6122C76.8574 7.6122 75.5393 6.31945 75.5393 4.8061C75.5393 3.29276 76.8574 2 78.5674 2C80.2774 2 81.5955 3.29276 81.5955 4.8061Z" fill="#232931" stroke="#A7A7A7" stroke-width="3"/>
<path d="M106.253 4.8061C106.253 6.31945 104.935 7.6122 103.225 7.6122C101.515 7.6122 100.197 6.31945 100.197 4.8061C100.197 3.29276 101.515 2 103.225 2C104.935 2 106.253 3.29276 106.253 4.8061Z" fill="#232931" stroke="#A7A7A7" stroke-width="3"/>
<path d="M106.253 28.9817C106.253 30.4951 104.935 31.7878 103.225 31.7878C101.515 31.7878 100.197 30.4951 100.197 28.9817C100.197 27.4684 101.515 26.1756 103.225 26.1756C104.935 26.1756 106.253 27.4684 106.253 28.9817Z" fill="#232931" stroke="#A7A7A7" stroke-width="3"/>
<path d="M81.5955 28.9817C81.5955 30.4951 80.2774 31.7878 78.5674 31.7878C76.8574 31.7878 75.5393 30.4951 75.5393 28.9817C75.5393 27.4684 76.8574 26.1756 78.5674 26.1756C80.2774 26.1756 81.5955 27.4684 81.5955 28.9817Z" fill="#232931" stroke="#A7A7A7" stroke-width="3"/>
<path d="M56.9383 28.9817C56.9383 30.4951 55.6202 31.7878 53.9102 31.7878C52.2002 31.7878 50.8821 30.4951 50.8821 28.9817C50.8821 27.4684 52.2002 26.1756 53.9102 26.1756C55.6202 26.1756 56.9383 27.4684 56.9383 28.9817Z" fill="#232931" stroke="#A7A7A7" stroke-width="3"/>
<path d="M32.7134 28.9817C32.7134 30.4951 31.3953 31.7878 29.6853 31.7878C27.9753 31.7878 26.6572 30.4951 26.6572 28.9817C26.6572 27.4684 27.9753 26.1756 29.6853 26.1756C31.3953 26.1756 32.7134 27.4684 32.7134 28.9817Z" fill="#232931" stroke="#A7A7A7" stroke-width="3"/>
<path d="M56.9383 53.1573C56.9383 54.6705 55.6202 55.9634 53.9102 55.9634C52.2002 55.9634 50.8821 54.6705 50.8821 53.1573C50.8821 51.6442 52.2002 50.3512 53.9102 50.3512C55.6202 50.3512 56.9383 51.6442 56.9383 53.1573Z" fill="#232931" stroke="#A7A7A7" stroke-width="3"/>
<path d="M81.5955 53.1573C81.5955 54.6705 80.2774 55.9634 78.5674 55.9634C76.8574 55.9634 75.5393 54.6705 75.5393 53.1573C75.5393 51.6442 76.8574 50.3512 78.5674 50.3512C80.2774 50.3512 81.5955 51.6442 81.5955 53.1573Z" fill="#232931" stroke="#A7A7A7" stroke-width="3"/>
<path d="M106.253 53.1573C106.253 54.6705 104.935 55.9634 103.225 55.9634C101.515 55.9634 100.197 54.6705 100.197 53.1573C100.197 51.6442 101.515 50.3512 103.225 50.3512C104.935 50.3512 106.253 51.6442 106.253 53.1573Z" fill="#232931" stroke="#A7A7A7" stroke-width="3"/>
<path d="M106.253 77.7647C106.253 79.2778 104.935 80.5708 103.225 80.5708C101.515 80.5708 100.197 79.2778 100.197 77.7647C100.197 76.2515 101.515 74.9586 103.225 74.9586C104.935 74.9586 106.253 76.2515 106.253 77.7647Z" fill="#232931" stroke="#A7A7A7" stroke-width="3"/>
<path d="M81.5955 77.7647C81.5955 79.2778 80.2774 80.5708 78.5674 80.5708C76.8574 80.5708 75.5393 79.2778 75.5393 77.7647C75.5393 76.2515 76.8574 74.9586 78.5674 74.9586C80.2774 74.9586 81.5955 76.2515 81.5955 77.7647Z" fill="#232931" stroke="#A7A7A7" stroke-width="3"/>
<path d="M56.9383 77.7647C56.9383 79.2778 55.6202 80.5708 53.9102 80.5708C52.2002 80.5708 50.8821 79.2778 50.8821 77.7647C50.8821 76.2515 52.2002 74.9586 53.9102 74.9586C55.6202 74.9586 56.9383 76.2515 56.9383 77.7647Z" fill="#232931" stroke="#A7A7A7" stroke-width="3"/>
<path d="M32.7134 77.7647C32.7134 79.2778 31.3953 80.5708 29.6853 80.5708C27.9753 80.5708 26.6572 79.2778 26.6572 77.7647C26.6572 76.2515 27.9753 74.9586 29.6853 74.9586C31.3953 74.9586 32.7134 76.2515 32.7134 77.7647Z" fill="#232931" stroke="#A7A7A7" stroke-width="3"/>
<path d="M32.2809 53.1573C32.2809 54.6705 30.9628 55.9634 29.2528 55.9634C27.5428 55.9634 26.2247 54.6705 26.2247 53.1573C26.2247 51.6442 27.5428 50.3512 29.2528 50.3512C30.9628 50.3512 32.2809 51.6442 32.2809 53.1573Z" fill="#232931" stroke="#A7A7A7" stroke-width="3"/>
<path d="M8.05618 53.1573C8.05618 54.6705 6.7381 55.9634 5.02809 55.9634C3.3181 55.9634 2 54.6705 2 53.1573C2 51.6442 3.3181 50.3512 5.02809 50.3512C6.7381 50.3512 8.05618 51.6442 8.05618 53.1573Z" fill="#232931" stroke="#A7A7A7" stroke-width="3"/>
<path d="M8.4888 77.7647C8.4888 79.2778 7.17071 80.5708 5.46071 80.5708C3.75072 80.5708 2.43262 79.2778 2.43262 77.7647C2.43262 76.2515 3.75072 74.9586 5.46071 74.9586C7.17071 74.9586 8.4888 76.2515 8.4888 77.7647Z" fill="#232931" stroke="#A7A7A7" stroke-width="3"/>
<path d="M8.4888 102.372C8.4888 103.885 7.17071 105.178 5.46071 105.178C3.75072 105.178 2.43262 103.885 2.43262 102.372C2.43262 100.859 3.75072 99.5659 5.46071 99.5659C7.17071 99.5659 8.4888 100.859 8.4888 102.372Z" fill="#232931" stroke="#A7A7A7" stroke-width="3"/>
<path d="M32.7134 102.372C32.7134 103.885 31.3953 105.178 29.6853 105.178C27.9753 105.178 26.6572 103.885 26.6572 102.372C26.6572 100.859 27.9753 99.5659 29.6853 99.5659C31.3953 99.5659 32.7134 100.859 32.7134 102.372Z" fill="#232931" stroke="#A7A7A7" stroke-width="3"/>
<path d="M56.9383 102.372C56.9383 103.885 55.6202 105.178 53.9102 105.178C52.2002 105.178 50.8821 103.885 50.8821 102.372C50.8821 100.859 52.2002 99.5659 53.9102 99.5659C55.6202 99.5659 56.9383 100.859 56.9383 102.372Z" fill="#232931" stroke="#A7A7A7" stroke-width="3"/>
<path d="M81.5955 102.372C81.5955 103.885 80.2774 105.178 78.5674 105.178C76.8574 105.178 75.5393 103.885 75.5393 102.372C75.5393 100.859 76.8574 99.5659 78.5674 99.5659C80.2774 99.5659 81.5955 100.859 81.5955 102.372Z" fill="#232931" stroke="#A7A7A7" stroke-width="3"/>
<path d="M106.253 102.372C106.253 103.885 104.935 105.178 103.225 105.178C101.515 105.178 100.197 103.885 100.197 102.372C100.197 100.859 101.515 99.5659 103.225 99.5659C104.935 99.5659 106.253 100.859 106.253 102.372Z" fill="#232931" stroke="#A7A7A7" stroke-width="3"/>
</svg>
